<svg xmlns="http://www.w3.org/2000/svg"   role="presentation" viewBox="0 0 364 358" style="--13luugp: rgb(46, 46, 46); --1htvxt1: 0.25; --1pwspqr: rgb(28, 28, 28); --1r53vy: rgb(66, 66, 66); --em6an1: rgb(233, 224, 209); --himqj5: 1; --121jcuf: 1; "><path d="M 233 0 L 0 133.787" fill="transparent" height="133.786723898952px" id="Rap2i2RD7" stroke="var(--em6an1, rgb(233, 224, 209))" stroke-dasharray="268.67816162109375 268.67816162109375" stroke-linecap="butt" stroke-linejoin="miter" stroke-miterlimit="10" stroke-width="var(--1htvxt1, 0.25)" transform="translate(102 186.313)" width="232.99976032558484px" stroke-dashoffset="0"></path><path d="M 0 57.484 C 0 6.136 36.049 -14.677 80.518 10.997 C 124.987 36.671 161.036 99.109 161.036 150.457 C 161.036 201.805 124.987 222.618 80.518 196.944 C 36.049 171.27 0 108.831 0 57.484 Z" fill="var(--13luugp, rgb(46, 46, 46))" height="207.94062093263406px" id="pioxcdgyo" stroke="var(--em6an1, rgb(233, 224, 209))" stroke-dasharray="574.518310546875 574.518310546875" stroke-linecap="butt" stroke-linejoin="miter" stroke-miterlimit="10" stroke-width="var(--himqj5, 1)" transform="translate(84.447 88.243)" width="161.03569129004563px" stroke-dashoffset="0"></path><path d="M 0 49.964 C 0 5.333 31.333 -12.757 69.985 9.558 C 108.636 31.873 139.969 86.144 139.969 130.774 C 139.969 175.405 108.636 193.495 69.985 171.18 C 31.333 148.864 0 94.594 0 49.964 Z" fill="var(--1r53vy, rgb(66, 66, 66))" height="180.73788462322153px" id="TB8jE7cJF" stroke="var(--em6an1, rgb(233, 224, 209))" stroke-dasharray="499.3597412109375 499.3597412109375" stroke-linecap="butt" stroke-linejoin="miter" stroke-miterlimit="10" stroke-width="var(--himqj5, 1)" transform="translate(94.979 101.832)" width="139.969045307555px" stroke-dashoffset="0"></path><path d="M 0 40.666 C 0 4.341 25.502 -10.383 56.961 7.78 C 88.42 25.942 113.923 70.114 113.923 106.439 C 113.923 142.764 88.42 157.488 56.961 139.325 C 25.502 121.163 0 76.991 0 40.666 Z" fill="var(--1pwspqr, rgb(28, 28, 28))" height="147.10494553154626px" id="zSGE6Z_ri" stroke="var(--em6an1, rgb(233, 224, 209))" stroke-dasharray="406.4347839355469 406.4347839355469" stroke-linecap="butt" stroke-linejoin="miter" stroke-miterlimit="10" stroke-width="var(--himqj5, 1)" transform="translate(108.002 118.649)" width="113.92265007966648px" stroke-dashoffset="0"></path><path d="M 0 30.389 C 15.722 21.312 36.328 24.132 56.934 36.029 L 100.282 11.002 C 79.676 -0.895 59.07 -3.715 43.348 5.362 Z" fill="var(--1r53vy, rgb(66, 66, 66))" height="36.029272251418675px" id="g3Sw7fvUp" stroke="var(--em6an1, rgb(233, 224, 209))" stroke-dasharray="219.97186279296875 219.97186279296875" stroke-linecap="butt" stroke-linejoin="miter" stroke-miterlimit="10" stroke-width="var(--himqj5, 1)" transform="translate(108.059 63.216)" width="100.28206188253779px" stroke-dashoffset="0"></path><path d="M 80.517 164.487 C 80.517 113.139 44.469 50.701 0 25.027 L 43.348 0 C 87.816 25.674 123.865 88.112 123.865 139.46 Z" fill="var(--13luugp, rgb(46, 46, 46))" height="164.48723248961215px" id="iO85s5EhH" stroke="var(--em6an1, rgb(233, 224, 209))" stroke-dasharray="434.8999938964844 434.8999938964844" stroke-linecap="butt" stroke-linejoin="miter" stroke-miterlimit="10" stroke-width="var(--himqj5, 1)" transform="translate(164.964 74.201)" width="123.86539760744427px" stroke-dashoffset="0"></path><path d="M 0 77.153 C 15.722 68.077 23.583 48.821 23.583 25.027 L 66.931 0 C 66.931 23.794 59.069 43.05 43.348 52.126 Z" fill="var(--1pwspqr, rgb(28, 28, 28))" height="77.15328846483476px" id="msy4V2qaQ" stroke="var(--em6an1, rgb(233, 224, 209))" stroke-dasharray="219.97186279296875 219.97186279296875" stroke-linecap="butt" stroke-linejoin="miter" stroke-miterlimit="10" stroke-width="var(--himqj5, 1)" transform="translate(221.926 213.661)" width="66.93073254274373px" stroke-dashoffset="0"></path><path d="M 232.83 0 L 0 134.081" fill="transparent" height="134.0808191435479px" id="uqzkrWaX2" stroke="var(--em6an1, rgb(233, 224, 209))" stroke-dasharray="268.6773681640625 268.6773681640625" stroke-linecap="butt" stroke-linejoin="miter" stroke-miterlimit="10" stroke-width="var(--1htvxt1, 0.25)" transform="translate(43 34.905)" width="232.8302337252153px" stroke-dashoffset="0"></path><path d="M 40.962 48.97 L 3.109 1.22 C 1.736 -0.513 0 -0.373 0 1.47 L 0 53.263 C 0 55.106 1.736 57.252 3.109 57.104 L 40.962 53.063 C 42.308 52.919 42.308 50.669 40.962 48.97 Z" fill="var(--1r53vy, rgb(66, 66, 66))" height="57.11160205317901px" id="SHv61uq0r" stroke="var(--em6an1, rgb(233, 224, 209))" stroke-dasharray="165.5010528564453 165.5010528564453" stroke-linecap="butt" stroke-linejoin="round" stroke-width="var(--himqj5, 1)" transform="translate(151.828 158.794)" width="41.971762630802914px" stroke-dashoffset="0"></path></svg>