<?xml version="1.0" encoding="UTF-8"?>
<svg xmlns="http://www.w3.org/2000/svg" viewBox="0 0 48 48">
  <defs>
    <style>
      .cls-2 {
        fill: #111115;
      }
      .cls-3 {
        fill: #cccfd2;
      }
    </style>
  </defs>
  <g transform="translate(-10, -5) scale(0.064)">
    <!-- Ghost body outline (light gray) -->
    <path class="cls-3" d="M289.65,345.65C634.37-13.36,1015.21,178.36,751.82,655.33c-21.31,36.94-63.72,107.37-113.21,101.57-20.9-2.45-23.66-20.4-36.25-31.75-57.76-52.03-145.76,78.41-210.36,26.36-39.57-31.88-11.06-87-21.48-127.52-13.51-52.53-55.22-49.56-99.72-43.7-39.79,11.82-82.8-1.1-85.83-47.76-4.79-61.7,64.48-144.31,104.69-186.88Z"/>
    <!-- Eyes (dark) -->
    <path class="cls-2" d="M707.76,316.26c-12.53,1.7-30.29,14.33-37.19,24.81-31.6,47.93,18.67,107.45,70.79,84.79,58.87-25.6,36.71-119.12-33.6-109.6Z"/>
    <path class="cls-2" d="M536.79,309.29c-71.95,7.32-64.77,119.58,12.69,112.69,72.35-6.44,62.69-120.36-12.69-112.69Z"/>
    <!-- Eye details (light gray) -->
    <path class="cls-3" d="M698.73,335.23c20.93-4.31,32,20.98,15.77,32.76-15.93,11.56-35.63-6.48-27.06-23.05,1.81-3.49,7.43-8.91,11.29-9.71Z"/>
    <path class="cls-3" d="M742.76,387.19c14.75-2.55,15.93,22.68-.01,19.6-11.17-2.16-9.63-17.93.01-19.6Z"/>
    <path class="cls-3" d="M524.76,328.26c12.21-1.74,23.78,7.44,22.15,20.15-.79,6.13-6.66,13.72-12.84,15.16-27.29,6.33-32.41-32.01-9.31-35.31Z"/>
    <path class="cls-3" d="M576.69,382.31c8.32,9.42-5.4,22.86-14.25,13.76-9.9-10.18,5.63-23.51,14.25-13.76Z"/>
  </g>
</svg>
